<svg xmlns="http://www.w3.org/2000/svg" version="1.1" xmlns:xlink="http://www.w3.org/1999/xlink" xmlns:svgjs="http://svgjs.dev/svgjs" width="40" height="40"><svg width="40" height="40" viewBox="0 0 40 40" fill="none" xmlns="http://www.w3.org/2000/svg">
<g id="SvgjsG1019" clip-path="url(#clip0_10007_186)">
<path id="SvgjsPath1018" d="M35.8308 4.17938C32.057 0.420156 26.6309 0 20 0C13.3608 0 7.92641 0.425 4.15422 4.19438C0.382578 7.96219 0 13.3878 0 20.0195C0 26.6522 0.382578 32.0795 4.15578 35.8486C7.92773 39.6185 13.3615 40.0001 20 40.0001C26.6386 40.0001 32.0714 39.6185 35.8434 35.8486C39.6163 32.0788 40 26.6522 40 20.0195C40 13.3793 39.6122 7.94781 35.8308 4.17938Z" fill="#FF6900"></path>
<path id="SvgjsPath1017" d="M31.6058 12.391C31.7432 12.391 31.8576 12.5017 31.8576 12.638V27.4338C31.8576 27.5677 31.7432 27.679 31.6058 27.679H28.3639C28.2248 27.679 28.1117 27.5677 28.1117 27.4338V12.638C28.1117 12.5018 28.2247 12.391 28.3639 12.391H31.6058ZM17.5372 12.391C19.9827 12.391 22.5398 12.5031 23.8009 13.7652C25.0409 15.0071 25.1752 17.4799 25.1803 19.8813V27.4337C25.1803 27.5677 25.0674 27.6789 24.9288 27.6789H21.6874C21.5486 27.6789 21.4352 27.5677 21.4352 27.4337V19.7513C21.4317 18.4102 21.3546 17.0318 20.663 16.3379C20.0677 15.7409 18.9568 15.6042 17.8016 15.5759H11.9259C11.7881 15.5759 11.6752 15.6867 11.6752 15.8209V27.4338C11.6752 27.5677 11.561 27.679 11.4223 27.679H8.17891C8.04032 27.679 7.92883 27.5677 7.92883 27.4338V12.638C7.92883 12.5018 8.04024 12.391 8.17891 12.391H17.5372ZM18.2627 18.2838C18.4007 18.2838 18.5128 18.3941 18.5128 18.5293V27.4338C18.5128 27.5677 18.4006 27.679 18.2627 27.679H14.8577C14.7177 27.679 14.6056 27.5677 14.6056 27.4338V18.5293C14.6056 18.3941 14.7177 18.2838 14.8577 18.2838H18.2627Z" fill="white"></path>
</g>
<defs>
<clipPath id="SvgjsClipPath1016">
<rect width="40" height="40" fill="white"></rect>
</clipPath>
</defs>
</svg><style>@media (prefers-color-scheme: light) { :root { filter: none; } }
@media (prefers-color-scheme: dark) { :root { filter: none; } }
</style></svg>