<svg width="40" height="40" viewBox="0 0 40 40" fill="none" xmlns="http://www.w3.org/2000/svg">
<g id="Logo" clip-path="url(#clip0_9352_69)">
<path id="Squircle" d="M35.8308 4.17938C32.057 0.420156 26.6309 0 20 0C13.3608 0 7.92641 0.425 4.15422 4.19438C0.382578 7.96219 0 13.3878 0 20.0195C0 26.6522 0.382578 32.0795 4.15578 35.8486C7.92773 39.6185 13.3615 40.0001 20 40.0001C26.6386 40.0001 32.0714 39.6185 35.8434 35.8486C39.6163 32.0788 40 26.6522 40 20.0195C40 13.3793 39.6122 7.94781 35.8308 4.17938Z" fill="#FF6900"/>
<path id="Text" d="M31.6057 12.3911C31.7431 12.3911 31.8575 12.5018 31.8575 12.6381V27.4338C31.8575 27.5678 31.7431 27.6791 31.6057 27.6791H28.3638C28.2247 27.6791 28.1116 27.5678 28.1116 27.4338V12.6381C28.1116 12.5019 28.2246 12.3911 28.3638 12.3911H31.6057ZM17.5371 12.3911C19.9826 12.3911 22.5396 12.5032 23.8008 13.7653C25.0407 15.0072 25.175 17.48 25.1802 19.8813V27.4338C25.1802 27.5678 25.0672 27.679 24.9287 27.679H21.6873C21.5485 27.679 21.435 27.5678 21.435 27.4338V19.7514C21.4316 18.4103 21.3545 17.0319 20.6629 16.338C20.0675 15.741 18.9567 15.6043 17.8015 15.576H11.9257C11.7879 15.576 11.6751 15.6868 11.6751 15.821V27.4338C11.6751 27.5678 11.5609 27.6791 11.4222 27.6791H8.17879C8.0402 27.6791 7.92871 27.5678 7.92871 27.4338V12.6381C7.92871 12.5019 8.04012 12.3911 8.17879 12.3911H17.5371ZM18.2626 18.2838C18.4006 18.2838 18.5127 18.3942 18.5127 18.5294V27.4338C18.5127 27.5678 18.4005 27.6791 18.2626 27.6791H14.8576C14.7176 27.6791 14.6054 27.5678 14.6054 27.4338V18.5294C14.6054 18.3942 14.7176 18.2838 14.8576 18.2838H18.2626Z" fill="white"/>
</g>
<defs>
<clipPath id="clip0_9352_69">
<rect width="40" height="40" fill="white"/>
</clipPath>
</defs>
</svg>
